<?xml version="1.0" encoding="utf-8"?>
<!--
     Copyright (C) 2017 Jorge Ruesga

     Licensed under the Apache License, ServerVersion 2.0 (the "License");
     you may not use this file except in compliance with the License.
     You may obtain a copy of the License at

          http://www.apache.org/licenses/LICENSE-2.0

     Unless required by applicable law or agreed to in writing, software
     distributed under the License is distributed on an "AS IS" BASIS,
     WITHOUT WARRANTIES OR CONDITIONS OF ANY KIND, either express or implied.
     See the License for the specific language governing permissions and
     limitations under the License.
 -->
<svg fill="#000000" height="24" viewBox="0 0 24 24" width="24" xmlns="http://www.w3.org/2000/svg">
  <path
     d="m 4.9289321881,4.9289321881 c -3.9032294321,3.9032294322 -3.9032294321,10.2389061919 0,14.1421356239 3.9032294322,3.903229432 10.2389061919,3.903229432 14.1421356239,0 3.903229432,-3.903229432 3.903229432,-10.2389061917 0,-14.1421356239 -3.903229432,-3.9032294321 -10.2389061917,-3.9032294321 -14.1421356239,0 z M 16.242640687,9.1715728753 13.414213562,12 16.242640687,14.828427125 14.828427125,16.242640687 12,13.414213562 9.1715728753,16.242640687 7.7573593129,14.828427125 10.585786438,12 7.7573593129,9.1715728753 9.1715728753,7.7573593129 12,10.585786438 14.828427125,7.7573593129 Z"
     id="path4487" />
  <path
     d="M 9.1526752372,7.7290128559 7.7290128559,9.1526752373 10.576337619,12 7.7290128562,14.847324763 9.1526752376,16.270987144 12,13.423662382 14.847324763,16.270987144 16.270987144,14.847324763 13.423662381,12 16.270987144,9.1526752373 14.847324763,7.729012856 12,10.576337619 Z"
     style="fill:#ffffff;" />
</svg>
