<?xml version="1.0" encoding="utf-8"?>
<!--
     https://www.shareicon.net/nature-oasis-island-desert-tropical-palm-tree-850393
 -->
<svg fill="#000000" height="24" viewBox="0 0 24 24" width="24" xmlns="http://www.w3.org/2000/svg">
    <path d="M 19.732339929,16.722338476 H 18.934551534 6.0151490066 c 1.1122381351,-1.812879457 3.120250596,-2.997618393 5.4055636294,-3.169982548 v 0.973068562 c 0,0.319922253 0.259325167,0.579287366 0.579287366,0.579287366 0.319962199,0 0.579287366,-0.259325167 0.579287366,-0.579287366 v -0.973707689 c 1.307650757,0.09878484 2.539125744,0.531952138 3.590846686,1.267985032 0.262161289,0.183468961 0.623307138,0.119676247 0.806736152,-0.142445093 0.183468961,-0.262121343 0.119676248,-0.623307138 -0.142445093,-0.806736152 -1.246893888,-0.872606025 -2.707814928,-1.378154289 -4.255137745,-1.479335844 V 6.7262959484 c 0.988247794,0.5130579871 1.442865744,1.5695723707 1.288636773,2.4413395431 -0.05544414,0.313770672 0.02796174,0.6311763684 0.22896671,0.8707685365 0.20507939,0.2444655 0.518370718,0.390385841 0.838213081,0.390385841 0.306900071,0 0.590272337,-0.128024828 0.797948176,-0.360466779 0.832341117,-0.9314055688 1.173793912,-2.1111513361 0.93679819,-3.2368510539 -0.02983917,-0.1415662959 -0.06842637,-0.2803763646 -0.115322205,-0.4157910755 0.117838762,0.044419225 0.243466866,0.067587524 0.372650107,0.067587524 0,0 3.9946e-5,0 1.19837e-4,0 0.32655318,0 0.644318387,-0.1517523592 0.849957012,-0.4059645233 0.201524256,-0.2489793249 0.278099481,-0.5743341456 0.21015245,-0.8925786964 -0.439958008,-2.0612596011 -2.088502326,-2.9839570847 -3.527133861,-2.9839570847 -0.930766443,0 -1.80832569,0.3660990717 -2.460273636,1.0052245622 -0.651987893,-0.6391254906 -1.529427304,-1.0052245623 -2.4602336907,-1.0052245623 -1.4386315358,0 -3.0870959622,0.9226575378 -3.5271338615,2.9839970298 -0.067907086,0.3182046057 0.00870808,0.6435194813 0.21015245,0.8924988055 0.2057185165,0.2542521099 0.5234837232,0.4060044691 0.850076849,0.4060044691 0.1291033494,0 0.2548113448,-0.023128358 0.3726900527,-0.067587524 -0.046935782,0.135374766 -0.085562925,0.2742247797 -0.1153222052,0.4157910756 -0.2369957224,1.1256997178 0.1044570732,2.3054454851 0.9367582448,3.2367312199 0.2077157842,0.23252184 0.4910880472,0.360586613 0.7979481765,0.360586613 0.3198024172,0 0.6332135782,-0.145920341 0.8382130801,-0.390385841 C 10.104114122,9.7988118599 10.187559943,9.4814461085 10.132075862,9.1675156547 9.9778868368,8.2958683191 10.432504787,7.2393539355 11.420712636,6.7262959484 v 5.6644493976 c -1.4274867877,0.09419112 -2.7911409169,0.535667053 -3.9742021465,1.291832402 -1.2048314424,0.770066325 -2.1486999574,1.815955247 -2.7508360633,3.039800673 H 4.2675002926 c -0.8596237857,0 -1.559066746,0.699283178 -1.559066746,1.558827075 0,0.859543897 0.6994030153,1.558867021 1.5591066911,1.558867021 h 1.2809273227 c -0.033993487,0.127785151 -0.052368346,0.26188167 -0.052368346,0.400292285 0,0.859503948 0.6994829062,1.558867018 1.5592664737,1.558867018 H 17.604850948 c 0.859623785,0 1.559066746,-0.699283178 1.559066746,-1.558867018 0,-0.13837067 -0.01837485,-0.272507134 -0.05236835,-0.400292285 h 0.620750635 c 0.859823512,0 1.559266474,-0.699283179 1.559266474,-1.558867021 0,-0.85958384 -0.699442962,-1.55886702 -1.559226524,-1.55886702 z M 8.9549265406,9.0818328927 C 8.4925991394,8.4661153725 8.3184773873,7.7607605029 8.4638784361,7.0700655731 8.6157106863,6.3490521254 9.1114323952,5.7345729125 9.7900638315,5.4261948622 10.038324141,5.3134291574 10.174298088,5.0427195662 10.116617014,4.7762042374 10.059615012,4.5128845327 9.8286510321,4.3240229506 9.5600984905,4.3196289629 c -0.00846841,-2.794943e-4 -0.016896885,-4.794297e-4 -0.025365301,-4.794297e-4 -0.875002744,0 -1.7040283985,0.3001892541 -2.318108159,0.8315821564 0.4001724485,-1.3159194439 1.4787766057,-1.7915087002 2.3231013253,-1.7915087002 0.8079744592,0 1.5283088322,0.3906654576 1.9762958572,1.0716936148 0.107173357,0.1628971098 0.289004558,0.2609629268 0.483977779,0.2609629268 0.194933276,0 0.376804422,-0.098065817 0.48397778,-0.2609629268 0.448026969,-0.6811080481 1.168321397,-1.0716936148 1.976295856,-1.0716936148 0.844364665,0 1.922928877,0.4755892563 2.323101325,1.791548646 -0.614079759,-0.5314727932 -1.44314536,-0.8315821571 -2.318108158,-0.8315821571 -0.0082288,0 -0.01649743,1.597826e-4 -0.02532534,4.794304e-4 -0.268592487,0.00439399 -0.499556464,0.1931756789 -0.556558469,0.4565752723 -0.05768107,0.2665153311 0.07825293,0.5371450313 0.326553183,0.649990627 0.678631437,0.3083381045 1.174393091,0.9228972091 1.326225341,1.6438707109 0.145401049,0.690654984 -0.02868076,1.3960497987 -0.491048104,2.0118072647 0.118557776,-1.531664241 -0.907438364,-3.3155034332 -2.924158907,-3.7350893188 -0.0390266,-0.00826868 -0.07941134,-0.012862398 -0.120874609,-0.012862398 -0.04146326,0 -0.08184801,0.00459369 -0.120874609,0.012862398 C 9.8623649025,5.7664093504 8.836368762,7.5502884885 8.9549265406,9.0818328927 Z M 19.732339929,18.681497782 h -6.110199483 c -0.319922254,0 -0.579287369,0.259325167 -0.579287369,0.579287366 0,0.319922254 0.25932517,0.579287369 0.579287369,0.579287369 h 3.78474138 0.198049013 c 0.220857803,0 0.400492011,0.179594262 0.400492011,0.400292285 0,0.220777912 -0.179674153,0.400332228 -0.400492011,0.400332228 H 7.0554056337 c -0.2209376942,0 -0.4007316842,-0.179594262 -0.4007316842,-0.400332228 0,-0.220698023 0.17979399,-0.400292285 0.4007316842,-0.400292285 h 2.933785734 c 0.3199222533,0 0.5792873683,-0.25932517 0.5792873683,-0.579287369 0,-0.319922254 -0.25932517,-0.579287366 -0.5792873683,-0.579287366 h -5.72165113 c -0.2208578024,0 -0.4005719008,-0.179594265 -0.4005719008,-0.400332232 0,-0.220737965 0.1796741525,-0.40033223 0.4005719008,-0.40033223 h 0.7979881221 13.8689432832 0.797788395 c 0.220937693,0 0.400731683,0.179594265 0.400731683,0.40033223 0,0.220737967 -0.179714099,0.400332232 -0.400651792,0.400332232 z" />
</svg>