<?xml version="1.0" encoding="utf-8"?>
<!--
     Copyright (C) 2017 Jorge Ruesga

     Licensed under the Apache License, ServerVersion 2.0 (the "License");
     you may not use this file except in compliance with the License.
     You may obtain a copy of the License at

          http://www.apache.org/licenses/LICENSE-2.0

     Unless required by applicable law or agreed to in writing, software
     distributed under the License is distributed on an "AS IS" BASIS,
     WITHOUT WARRANTIES OR CONDITIONS OF ANY KIND, either express or implied.
     See the License for the specific language governing permissions and
     limitations under the License.
 -->
<svg fill="#000000" height="24" viewBox="0 0 24 24" width="24" xmlns="http://www.w3.org/2000/svg">
    <path
        d="M 2.00390625 1.986328125 L 2.00390625 17.388671875 L 5.615234375 17.388671875 L 5.615234375 5.59765625 L 17.388671875 5.59765625 L 17.388671875 1.986328125 L 2.00390625 1.986328125 z " />
    <path
        d="M 6.615234375 6.59765625 L 6.615234375 22 L 22 22 L 22 6.59765625 L 6.615234375 6.59765625 z M 8.923828125 10.435546875 L 13.5234375 10.435546875 L 13.5234375 11.96875 L 8.923828125 11.96875 L 8.923828125 10.435546875 z M 15.05859375 10.435546875 L 19.66015625 10.435546875 L 19.66015625 11.96875 L 15.05859375 11.96875 L 15.05859375 10.435546875 z M 10.45703125 14.26953125 L 11.990234375 14.26953125 L 11.990234375 15.802734375 L 13.5234375 15.802734375 L 13.5234375 17.337890625 L 11.990234375 17.337890625 L 11.990234375 18.87109375 L 10.45703125 18.87109375 L 10.45703125 17.337890625 L 8.923828125 17.337890625 L 8.923828125 15.802734375 L 10.45703125 15.802734375 L 10.45703125 14.26953125 z M 16.591796875 14.26953125 L 18.125 14.26953125 L 18.125 15.802734375 L 19.66015625 15.802734375 L 19.66015625 17.337890625 L 18.125 17.337890625 L 18.125 18.87109375 L 16.591796875 18.87109375 L 16.591796875 17.337890625 L 15.05859375 17.337890625 L 15.05859375 15.802734375 L 16.591796875 15.802734375 L 16.591796875 14.26953125 z " />
</svg>
