<?xml version="1.0" encoding="utf-8"?>
<!--
     Copyright (C) 2017 Jorge Ruesga

     Licensed under the Apache License, ServerVersion 2.0 (the "License");
     you may not use this file except in compliance with the License.
     You may obtain a copy of the License at

          http://www.apache.org/licenses/LICENSE-2.0

     Unless required by applicable law or agreed to in writing, software
     distributed under the License is distributed on an "AS IS" BASIS,
     WITHOUT WARRANTIES OR CONDITIONS OF ANY KIND, either express or implied.
     See the License for the specific language governing permissions and
     limitations under the License.
 -->
<svg fill="#000000" height="24" viewBox="0 0 24 24" width="24" xmlns="http://www.w3.org/2000/svg">
    <path d="M 6 2 C 4.89 2 4 2.89 4 4 L 4 20 A 2 2 0 0 0 6 22 L 18 22 A 2 2 0 0 0 20 20 L 20 8 L 14 2 L 6 2 z M 13 3.5 L 18.5 9 L 13 9 L 13 3.5 z M 9.8828125 13.015625 L 11.728515625 13.015625 L 11.728515625 13.892578125 L 9.8828125 13.892578125 C 9.093788878 13.892578125 8.451171875 14.533242003 8.451171875 15.322265625 C 8.451171875 16.111289247 9.093788878 16.75390625 9.8828125 16.75390625 L 11.728515625 16.75390625 L 11.728515625 17.630859375 L 9.8828125 17.630859375 C 8.609300689 17.630859375 7.57421875 16.595777436 7.57421875 15.322265625 C 7.57421875 14.048753814 8.609300689 13.015625 9.8828125 13.015625 z M 12.650390625 13.015625 L 14.49609375 13.015625 C 15.769605561 13.015625 16.802734375 14.048753814 16.802734375 15.322265625 C 16.802734375 16.595777436 15.769605561 17.630859375 14.49609375 17.630859375 L 12.650390625 17.630859375 L 12.650390625 16.75390625 L 14.49609375 16.75390625 C 15.285117372 16.75390625 15.92578125 16.111289247 15.92578125 15.322265625 C 15.92578125 14.533242003 15.285117372 13.892578125 14.49609375 13.892578125 L 12.650390625 13.892578125 L 12.650390625 13.015625 z M 10.34375 14.861328125 L 14.03515625 14.861328125 L 14.03515625 15.78515625 L 10.34375 15.78515625 L 10.34375 14.861328125 z " />
</svg>