<?xml version="1.0" encoding="utf-8"?>
<!--
     Copyright (C) 2017 Jorge Ruesga

     Licensed under the Apache License, ServerVersion 2.0 (the "License");
     you may not use this file except in compliance with the License.
     You may obtain a copy of the License at

          http://www.apache.org/licenses/LICENSE-2.0

     Unless required by applicable law or agreed to in writing, software
     distributed under the License is distributed on an "AS IS" BASIS,
     WITHOUT WARRANTIES OR CONDITIONS OF ANY KIND, either express or implied.
     See the License for the specific language governing permissions and
     limitations under the License.
 -->
<svg fill="#000000" height="24" viewBox="0 0 24 24" width="24" xmlns="http://www.w3.org/2000/svg">
    <path d="M 12 2 A 10 10 0 0 0 2 12 A 10 10 0 0 0 12 22 A 10 10 0 0 0 22 12 A 10 10 0 0 0 12 2 z M 12 4 A 8 8 0 0 1 20 12 A 8 8 0 0 1 12 20 A 8 8 0 0 1 4 12 A 8 8 0 0 1 12 4 z M 13.4453125 5.912109375 C 12.817079095 5.912109375 12.314453125 6.4090755844 12.314453125 7.04296875 C 12.314453125 7.654222874 12.817079095 8.17578125 13.4453125 8.17578125 C 14.062226384 8.17578125 14.578125 7.654222874 14.578125 7.04296875 C 14.578125 6.4090755844 14.062226384 5.912109375 13.4453125 5.912109375 z M 12.59765625 8.458984375 C 12.422203678 8.458984375 12.314124448 8.50390625 12.138671875 8.50390625 L 9.201171875 9.748046875 L 9.201171875 12.419921875 L 10.333984375 12.419921875 L 10.333984375 10.484375 L 11.345703125 10.087890625 L 10.44140625 14.68359375 L 7.66796875 14.1171875 L 7.44140625 15.25 L 11.40234375 16.03125 L 11.96875 13.552734375 L 13.162109375 14.68359375 L 13.162109375 18.080078125 L 14.294921875 18.080078125 L 14.294921875 13.8359375 L 13.1015625 12.703125 L 13.4453125 11.005859375 C 14.175421592 11.854823436 15.3077867 12.419921875 16.55859375 12.419921875 L 16.55859375 11.2890625 C 15.477579512 11.2890625 14.577581218 10.721654728 14.119140625 9.91796875 L 13.552734375 9.0234375 C 13.326343958 8.6725323547 12.988179718 8.458984375 12.59765625 8.458984375 z " />
</svg>
