<?xml version="1.0" encoding="UTF-8" standalone="no"?>
<!--
     Copyright (C) 2016 Jorge Ruesga

     Licensed under the Apache License, ServerVersion 2.0 (the "License");
     you may not use this file except in compliance with the License.
     You may obtain a copy of the License at

          http://www.apache.org/licenses/LICENSE-2.0

     Unless required by applicable law or agreed to in writing, software
     distributed under the License is distributed on an "AS IS" BASIS,
     WITHOUT WARRANTIES OR CONDITIONS OF ANY KIND, either express or implied.
     See the License for the specific language governing permissions and
     limitations under the License.
 -->

<svg fill="#ffffff" height="24" viewBox="0 0 24 24" width="24" xmlns="http://www.w3.org/2000/svg">
  <g transform="translate(0,-24)">
    <g transform="translate(0.02081530855,-0.152850533)">
      <path
         d="m 11.979184691,30.688218193 a 10.729946783,5.4644681075 0 0 0 -10.7299467831,5.46463234 10.729946783,5.4644681075 0 0 0 10.7299467831,5.46463234 10.729946783,5.4644681075 0 0 0 10.729946784,-5.46463234 10.729946783,5.4644681075 0 0 0 -10.729946784,-5.46463234 z m 0,1.744031598 a 3.7206007422,3.7206007422 0 0 1 1.451283437,0.294824389 0.96336983504,0.96336983504 0 0 0 -0.122497457,0.469227549 0.96336983504,0.96336983504 0 0 0 0.963369834,0.963369835 0.96336983504,0.96336983504 0 0 0 0.662316762,-0.263680968 3.7206007422,3.7206007422 0 0 1 0.766128166,2.256859937 3.7206007422,3.7206007422 0 0 1 -3.720600742,3.720600742 3.7206007422,3.7206007422 0 0 1 -3.7206007423,-3.720600742 3.7206007422,3.7206007422 0 0 1 3.7206007423,-3.720600742 z m -6.5577664307,2.1655059 0.4131693905,0 0,1.355776945 1.3568150583,0 0,0.398635793 -1.3568150583,0 0,1.355776946 -0.4131693905,0 0,-1.355776946 -1.3568150586,0 0,-0.398635793 1.3568150586,0 0,-1.355776945 z m 11.7587178037,1.352662603 2.329527919,0 0,0.404864478 -2.329527919,0 0,-0.404864478 z" />
      <path
         d="m 11.979184691,34.923723502 a 1.2291270309,1.2291270309 0 0 0 -1.229127031,1.229127031 1.2291270309,1.2291270309 0 0 0 1.229127031,1.229127031 1.2291270309,1.2291270309 0 0 0 1.229127031,-1.229127031 1.2291270309,1.2291270309 0 0 0 -0.243956801,-0.732908517 0.43185544329,0.43185544329 0 0 1 -0.420436189,0.334272723 0.43185544329,0.43185544329 0 0 1 -0.431855443,-0.431855443 0.43185544329,0.43185544329 0 0 1 0.185822414,-0.355035004 1.2291270309,1.2291270309 0 0 0 -0.318701012,-0.04360079 z" />
    </g>
  </g>
</svg>
